<svg width="500" height="500" xmlns="http://www.w3.org/2000/svg">

 <g>
  <title>Layer 1</title>
  <path id="svg_7" d="m250.77774,0c-136.85027,0 -247.77774,110.93398 -247.77774,247.77777c0,136.85082 110.92747,247.77766 247.77774,247.77766c136.84387,0 247.77782,-110.92683 247.77782,-247.77766c0,-136.84379 -110.93393,-247.77777 -247.77782,-247.77777zm22.63853,390.48771l-46.14825,0l0,-44.25522l46.14825,0l0,44.25522zm0,-91.5087l0,14.626l-46.14825,0l0,-18.02116c0,-54.38084 61.88578,-63.01056 61.88578,-101.66092c0,-17.62379 -15.75745,-31.12409 -36.38637,-31.12409c-21.37652,0 -40.12551,15.75077 -40.12551,15.75077l-26.27353,-32.64709c0,0 25.89646,-27.0081 70.5286,-27.0081c42.39603,0 81.76065,26.25392 81.76065,70.51562c0.01978,61.91851 -65.24138,69.05917 -65.24138,109.56897l0,0.00002z" stroke-width="0" stroke="#000" fill="#BBBBBB"/>
 </g>
</svg>