<svg width="500" height="500" xmlns="http://www.w3.org/2000/svg">

 <g>
  <title>Layer 1</title>
  <path stroke="#000" id="svg_5" d="m499.85356,430.6586l-132.99655,-132.30421c17.91702,-29.39062 28.42461,-63.77561 28.44327,-100.64849c-0.01866,-107.55519 -87.56944,-194.66877 -195.63147,-194.7059c-108.0807,0.03713 -195.6688,87.15071 -195.6688,194.68734c0,107.48093 87.5881,194.5945 195.6688,194.5945c37.0845,0 71.64942,-10.45289 101.19384,-28.27664l133.03388,132.32278l65.95703,-65.66938zm-421.21797,-232.97127c0.11198,-66.50487 54.18033,-120.27318 121.01455,-120.42171c66.79689,0.14853 120.90256,53.91684 121.01455,120.42171c-0.13064,66.46773 -54.21765,120.23605 -121.01455,120.38458c-66.83422,-0.14853 -120.90256,-53.91684 -121.01455,-120.38458z" stroke-width="0" fill="#BBBBBB"/>
 </g>
</svg>